<svg 
 xmlns="http://www.w3.org/2000/svg"
 xmlns:xlink="http://www.w3.org/1999/xlink"
 width="43px" height="42px">
<path fill-rule="evenodd"  fill="rgb(163, 187, 200)"
 d="M41.984,8.578 L28.765,29.025 C29.293,30.136 29.589,31.382 29.589,32.695 C29.589,37.368 25.846,41.170 21.247,41.170 C16.646,41.170 12.903,37.368 12.903,32.695 C12.903,31.382 13.199,30.136 13.728,29.024 L0.509,8.578 C0.277,8.218 0.325,7.743 0.625,7.439 L6.943,1.021 C7.111,0.851 7.338,0.755 7.574,0.755 L34.919,0.755 C35.156,0.755 35.383,0.851 35.550,1.021 L41.869,7.439 C42.168,7.743 42.215,8.218 41.984,8.578 ZM21.247,39.357 C24.862,39.357 27.804,36.369 27.804,32.695 C27.804,29.023 24.862,26.034 21.247,26.034 C17.630,26.034 14.688,29.023 14.688,32.695 C14.688,36.369 17.630,39.357 21.247,39.357 ZM21.260,24.221 L31.109,8.987 L11.383,8.987 L21.233,24.221 C21.237,24.221 21.242,24.221 21.247,24.221 C21.251,24.221 21.255,24.221 21.260,24.221 ZM14.779,27.348 C15.907,25.943 17.469,24.912 19.256,24.465 L9.247,8.987 L2.909,8.987 L14.779,27.348 ZM34.549,2.568 L7.943,2.568 L3.410,7.174 L9.728,7.174 C9.734,7.174 9.741,7.174 9.747,7.174 L32.746,7.174 C32.752,7.174 32.758,7.174 32.764,7.174 L39.084,7.174 L34.549,2.568 ZM33.245,8.987 L23.237,24.465 C25.024,24.912 26.586,25.943 27.714,27.349 L39.584,8.987 L33.245,8.987 ZM20.131,29.377 L21.550,29.377 C22.042,29.377 22.442,29.783 22.442,30.285 L22.442,36.093 C22.442,36.593 22.042,36.999 21.550,36.999 C21.057,36.999 20.657,36.593 20.657,36.093 L20.657,31.191 L20.131,31.191 C19.639,31.191 19.239,30.785 19.239,30.285 C19.239,29.783 19.639,29.377 20.131,29.377 Z"/>
</svg>