<?xml version="1.0" encoding="UTF-8"?>
<svg xmlns="http://www.w3.org/2000/svg" xmlns:xlink="http://www.w3.org/1999/xlink" width="15px" height="15px" viewBox="0 0 15 15" version="1.1">
<g id="surface1">
<path style=" stroke:none;fill-rule:nonzero;fill:rgb(82, 98, 120);fill-opacity:1;" d="M 8.292969 2.292969 C 8.683594 1.902344 9.316406 1.902344 9.707031 2.292969 L 14.207031 6.792969 C 14.597656 7.183594 14.597656 7.816406 14.207031 8.207031 L 9.707031 12.707031 C 9.316406 13.097656 8.683594 13.097656 8.292969 12.707031 C 7.902344 12.316406 7.902344 11.683594 8.292969 11.292969 L 11 8.5 L 1.5 8.5 C 0.949219 8.5 0.5 8.050781 0.5 7.5 C 0.5 6.949219 0.949219 6.5 1.5 6.5 L 11 6.5 L 8.292969 3.707031 C 7.902344 3.316406 7.902344 2.683594 8.292969 2.292969 Z M 8.292969 2.292969 "/>
</g>
</svg>
