<?xml version="1.0" encoding="UTF-8"?>
<svg xmlns="http://www.w3.org/2000/svg" xmlns:xlink="http://www.w3.org/1999/xlink" width="12px" height="14px" viewBox="0 0 12 13" version="1.1">
<g id="surface1">
<path style=" stroke:none;fill-rule:nonzero;fill:rgb(225%, 225%, 225%);fill-opacity:1;" d="M 8.144531 3.25 C 8.144531 2.128906 7.183594 1.21875 6 1.21875 C 4.816406 1.21875 3.855469 2.128906 3.855469 3.25 C 3.855469 4.371094 4.816406 5.28125 6 5.28125 C 7.183594 5.28125 8.144531 4.371094 8.144531 3.25 Z M 2.570312 3.25 C 2.570312 1.453125 4.105469 0 6 0 C 7.894531 0 9.429688 1.453125 9.429688 3.25 C 9.429688 5.046875 7.894531 6.5 6 6.5 C 4.105469 6.5 2.570312 5.046875 2.570312 3.25 Z M 1.320312 11.78125 L 10.683594 11.78125 C 10.445312 10.175781 8.988281 8.9375 7.226562 8.9375 L 4.777344 8.9375 C 3.019531 8.9375 1.5625 10.175781 1.324219 11.78125 Z M 0 12.246094 C 0 9.746094 2.136719 7.71875 4.777344 7.71875 L 7.222656 7.71875 C 9.863281 7.71875 12 9.746094 12 12.246094 C 12 12.664062 11.644531 13 11.203125 13 L 0.796875 13 C 0.355469 13 0 12.664062 0 12.246094 Z M 0 12.246094 "/>
</g>
</svg>
