<svg 
 xmlns="http://www.w3.org/2000/svg"
 xmlns:xlink="http://www.w3.org/1999/xlink"
 width="22px" height="9px">
<path fill-rule="evenodd"  fill="rgb(163, 187, 200)"
 d="M0.296,5.473 L0.288,5.471 L17.244,5.471 L17.144,8.329 C17.089,8.384 17.060,8.458 17.060,8.534 C17.060,8.612 17.089,8.684 17.144,8.739 L17.316,8.912 C17.371,8.967 17.443,8.996 17.520,8.996 C17.597,8.996 17.669,8.967 17.724,8.913 L21.916,4.701 C21.970,4.647 22.000,4.573 21.1000,4.497 C22.000,4.420 21.970,4.347 21.916,4.293 L17.724,0.080 C17.669,0.026 17.597,-0.003 17.520,-0.003 C17.443,-0.003 17.371,0.026 17.316,0.080 L17.144,0.254 C17.089,0.307 17.060,0.380 17.060,0.458 C17.060,0.535 17.089,0.604 17.144,0.657 L17.257,3.522 L0.292,3.522 C0.133,3.522 -0.000,3.659 -0.000,3.818 L-0.000,5.188 C-0.000,5.347 0.137,5.473 0.296,5.473 Z"/>
</svg>