<svg 
 xmlns="http://www.w3.org/2000/svg"
 xmlns:xlink="http://www.w3.org/1999/xlink"
 width="22px" height="9px">
<path fill-rule="evenodd"  fill="rgb(163, 187, 200)"
 d="M21.704,3.526 L21.712,3.529 L4.756,3.529 L4.856,0.670 C4.910,0.616 4.940,0.542 4.940,0.465 C4.940,0.388 4.910,0.315 4.856,0.261 L4.684,0.087 C4.629,0.033 4.557,0.003 4.480,0.003 C4.403,0.003 4.331,0.033 4.276,0.087 L0.084,4.298 C0.030,4.353 -0.000,4.426 -0.000,4.503 C-0.000,4.580 0.030,4.653 0.084,4.707 L4.276,8.920 C4.331,8.973 4.403,9.003 4.480,9.003 C4.557,9.003 4.629,8.973 4.684,8.920 L4.856,8.746 C4.910,8.692 4.940,8.619 4.940,8.542 C4.940,8.465 4.910,8.396 4.856,8.342 L4.743,5.478 L21.708,5.478 C21.867,5.478 22.000,5.340 22.000,5.181 L22.000,3.812 C22.000,3.653 21.863,3.526 21.704,3.526 Z"/>
</svg>