<svg xmlns="http://www.w3.org/2000/svg" xmlns:xlink="http://www.w3.org/1999/xlink" width="22px" height="9px">
            <path fill-rule="evenodd" fill="rgb(67, 99, 114)"
              d="M0.296,5.472 L0.288,5.470 L17.244,5.470 L17.144,8.329 C17.089,8.383 17.060,8.458 17.060,8.534 C17.060,8.611 17.089,8.684 17.144,8.739 L17.316,8.912 C17.370,8.966 17.443,8.995 17.520,8.995 C17.597,8.995 17.669,8.966 17.724,8.912 L21.916,4.700 C21.970,4.646 22.000,4.573 21.1000,4.496 C22.000,4.419 21.970,4.346 21.916,4.292 L17.724,0.079 C17.669,0.026 17.597,-0.004 17.520,-0.004 C17.443,-0.004 17.370,0.026 17.316,0.079 L17.144,0.253 C17.089,0.307 17.060,0.379 17.060,0.457 C17.060,0.534 17.089,0.603 17.144,0.656 L17.257,3.522 L0.292,3.522 C0.133,3.522 -0.000,3.659 -0.000,3.817 L-0.000,5.187 C-0.000,5.346 0.137,5.472 0.296,5.472 Z" />
          </svg>