<svg 
 xmlns="http://www.w3.org/2000/svg"
 xmlns:xlink="http://www.w3.org/1999/xlink"
 width="127px" height="127px">
<path fill-rule="evenodd"  fill="rgb(163, 187, 200)"
 d="M63.000,13.1000 C90.062,13.1000 111.1000,35.938 111.1000,62.1000 C111.1000,90.062 90.062,111.1000 63.000,111.1000 C35.938,111.1000 13.1000,90.062 13.1000,62.1000 C13.1000,35.938 35.938,13.1000 63.000,13.1000 Z"/>
<path fill-rule="evenodd"  fill="rgb(255, 255, 255)"
 d="M73.684,64.740 L57.640,74.536 C57.139,74.842 56.559,74.997 55.977,74.997 C55.498,74.997 55.017,74.891 54.578,74.680 C53.606,74.210 52.999,73.293 52.999,72.295 L52.999,52.700 C52.999,51.701 53.606,50.783 54.578,50.314 C55.549,49.845 56.727,49.900 57.640,50.457 L73.684,60.255 C74.506,60.757 74.999,61.598 74.999,62.496 C74.999,63.396 74.506,64.237 73.684,64.740 Z"/>
</svg>